HIERARCHY
ROOT Center
{
	OFFSET 0 0 0 
	CHANNELS 6 Xposition Yposition Zposition Zrotation Xrotation Yrotation
	JOINT Abdomen
	{
		OFFSET -0.00120126 0.474001 0.074352 
		CHANNELS 3 Zrotation Xrotation Yrotation
		JOINT Chest
		{
			OFFSET 0 0.781146 0 
			CHANNELS 3 Zrotation Xrotation Yrotation
			JOINT Neck
			{
				OFFSET 0.00425911 0.886896 -0.0541514 
				CHANNELS 3 Zrotation Xrotation Yrotation
				JOINT Head
				{
					OFFSET 0.00358257 0.625374 0.00695322 
					CHANNELS 3 Zrotation Xrotation Yrotation
					End Site
					{
						OFFSET -0.0118769 0.624732 0.0257096 
					}
				}
			}
			JOINT LCollar
			{
				OFFSET 0.00425911 0.886896 -0.0541514 
				CHANNELS 3 Zrotation Xrotation Yrotation
				JOINT LShoulder
				{
					OFFSET 0.60423 0 0 
					CHANNELS 3 Zrotation Xrotation Yrotation
					JOINT LElbow
					{
						OFFSET 1.90212 0 0 
						CHANNELS 3 Zrotation Xrotation Yrotation
						JOINT LWrist
						{
							OFFSET 1.4034 0 0 
							CHANNELS 3 Zrotation Xrotation Yrotation
							End Site
							{
								OFFSET 0.984318 0 0 
							}
						}
					}
				}
			}
			JOINT RCollar
			{
				OFFSET 0.00425911 0.886896 -0.0541514 
				CHANNELS 3 Zrotation Xrotation Yrotation
				JOINT RShoulder
				{
					OFFSET -0.679914 0 0 
					CHANNELS 3 Zrotation Xrotation Yrotation
					JOINT RElbow
					{
						OFFSET -1.85605 0 0 
						CHANNELS 3 Zrotation Xrotation Yrotation
						JOINT RWrist
						{
							OFFSET -1.40893 0 0 
							CHANNELS 3 Zrotation Xrotation Yrotation
							End Site
							{
								OFFSET -0.984318 0 0 
							}
						}
					}
				}
			}
		}
	}
	JOINT LHip
	{
		OFFSET 0.45851 -0.621468 0.00081999 
		CHANNELS 3 Zrotation Xrotation Yrotation
		JOINT LKnee
		{
			OFFSET 0 -2.4679 0 
			CHANNELS 3 Zrotation Xrotation Yrotation
			JOINT LAnkle
			{
				OFFSET 0 -2.36891 0 
				CHANNELS 3 Zrotation Xrotation Yrotation
				End Site
				{
					OFFSET -0 -0.368077 -0.1164 
				}
				JOINT LToe
				{
					OFFSET 0 -0.368077 0.7425 
					CHANNELS 3 Zrotation Xrotation Yrotation
					End Site
					{
						OFFSET 0 -1.86956e-011 0.416318 
					}
				}
			}
		}
	}
	JOINT RHip
	{
		OFFSET -0.447934 -0.621468 0.00081999 
		CHANNELS 3 Zrotation Xrotation Yrotation
		JOINT RKnee
		{
			OFFSET 0 -2.47062 0 
			CHANNELS 3 Zrotation Xrotation Yrotation
			JOINT RAnkle
			{
				OFFSET 0 -2.36677 0 
				CHANNELS 3 Zrotation Xrotation Yrotation
				End Site
				{
					OFFSET -0 -0.368189 -0.1164 
				}
				JOINT RToe
				{
					OFFSET 0 -0.368189 0.795012 
					CHANNELS 3 Zrotation Xrotation Yrotation
					End Site
					{
						OFFSET 0 -1.88184e-011 0.419312 
					}
				}
			}
		}
	}
}
MOTION
Frames: 18
Frame Time: 0.0166667
0 5.48704 0 -6.30046 7.99151 59.9988 -2.0953 -2.78311 -3.66293 -2.01358 -27.7914 -4.47835 8.7668 19.6105 -24.2687 -6.17057 -20.3694 -23.8404 -12.7937 0 -19.7041 -30.8832 -25.6467 -21.3741 -2.17731 -1.57708 -21.9105 -36.7889 -43.1831 -12.5689 9.1095 1.98785e-016 -13.3799 3.59445 -36.7607 -10.2325 -5.48787 -6.56525 18.3715 31.8762 -10.1747 39.3764 -11.1368 4.74182 23.3597 -0.961391 4.891 0.0819986 1.8976 -5.93078 20.3206 -0 5.2133 -0 -9.30413 -39.7408 -42.7273 2.17352 1.7019 -0.0646285 -11.013 61.1402 3.66779 -0 4.2973 -0 
0.269412 5.54774 0.11811 -5.99756 7.18637 60.9247 -0.531839 -8.79298 -6.11494 -3.61151 -15.2936 -5.7395 7.92141 13.3459 -21.7914 -5.35701 -18.7206 -21.8015 -8.9839 0 -16.0399 -34.4651 -29.8741 -26.4932 -3.29068 -1.27693 -22.5696 -35.3151 -43.0674 -12.9715 10.0413 0 -11.3097 7.78626 -31.6781 -9.65286 -7.75547 -4.06733 20.2825 32.915 -23.0264 44.5785 -9.81621 4.733 22.296 -1.00357 11.1868 0.194699 4.35214 0.719869 24.8947 -0 7.6202 -0 -7.4913 -36.7862 -39.8642 3.4902 0.7501 -0.0457039 -11.7035 63.3482 -8.95311 -0 4.0912 -0 
0.53934 5.65331 0.259842 -4.8057 6.62627 60.4283 -0.977471 -14.4936 -8.08122 -4.53691 -4.32322 -6.00736 8.2865 10.3244 -20.4712 -4.17939 -20.0713 -20.5432 -5.9757 -9.93923e-017 -13.803 -33.5203 -29.7301 -27.4558 -2.7006 -2.00259 -22.8395 -38.0612 -45.1978 -13.8615 11.8161 0 -7.3 8.11262 -34.476 -10.7215 -8.51919 -3.19178 19.6972 37.1237 -25.8372 45.5485 -8.03303 4.96088 24.0102 -1.40404 16.8905 0.408001 4.42903 12.3393 26.3213 -0 6.6754 -0 -5.42519 -32.7048 -37.0593 4.64859 0.5883 -0.0478025 -16.2443 63.0893 -12.1701 -0 6.4437 -0 
0.811866 5.75874 0.396852 -3.60189 5.99144 60.124 -1.40583 -18.3536 -9.51096 -5.06551 3.29898 -6.56392 7.16246 8.22212 -19.1656 -2.4638 -19.4075 -19.1481 -4.3986 4.96962e-017 -11.0499 -32.1387 -29.2542 -27.276 -2.67457 -1.4571 -22.5271 -42.4768 -44.3093 -19.3724 13.5405 -9.93923e-017 -4.6361 7.70982 -34.4659 -10.0246 -8.59378 -2.72911 17.5674 38.6132 -29.8006 46.4866 -5.46335 2.74528 26.0176 -0.593005 25.2491 0.252968 3.99217 21.6439 22.5462 -0 5.5364 -0 -4.55075 -27.159 -33.4738 6.4476 0.4498 -0.0508016 -27.7935 60.0087 -7.80378 -0 11.0272 -0 
1.0712 5.83162 0.54117 -2.42736 5.37868 59.5011 -2.90445 -18.8842 -10.5486 -3.42132 4.88721 -6.93935 5.5219 8.85379 -18.3179 -1.20909 -19.201 -18.175 -6.1539 0 -8.666 -26.8434 -24.0344 -24.804 -2.96678 -1.70855 -22.7804 -40.1529 -45.7791 -19.5109 14.4835 -4.96962e-017 -2.9082 5.90141 -34.2431 -10.9741 -8.88713 -3.12521 16.7035 39.0833 -28.0709 44.5228 -2.28679 -0.595257 27.6021 -0.827079 31.4752 0.431839 3.95936 28.3173 23.1862 -0 3.386 -0 -3.80876 -21.5377 -32.3166 6.4555 1.59109 -0.179969 -24.9399 49.6254 -7.70871 -0 9.804 -0 
1.32092 5.86021 0.675894 -3.05624 5.2799 59.8505 -4.98792 -20.4262 -11.7486 -0.157223 5.83178 -7.2074 3.42947 9.50224 -17.9142 0.109623 -19.3795 -17.7021 -10.4952 0 -8.3049 -20.4971 -20.9409 -21.9603 -3.11223 -2.45607 -23.3871 -38.2224 -47.496 -16.1852 15.4882 -2.48481e-017 -1.5936 2.33662 -32.7977 -13.1081 -8.89748 -2.96607 16.4927 39.8509 -30.3446 44.4178 1.37039 -6.63314 28.0283 -1.25231 35.6282 0.729571 3.7559 27.2798 24.1755 -0 5.8713 -0 -2.83496 -18.0622 -29.5438 5.93745 2.58837 -0.269075 -20.8055 40.4289 -11.68 -0 8.6345 -0 
1.55914 5.85198 0.810462 -3.52141 4.5791 60.8249 -6.34358 -20.6629 -13.0644 1.81219 5.87405 -7.22272 2.53165 10.5993 -18.0991 0.949487 -18.9862 -17.7943 -11.7704 0 -8.7246 -17.0522 -17.5536 -18.5483 -3.04406 -2.61082 -23.3055 -39.3589 -47.0698 -20.913 15.9515 0 -1.8858 0.561296 -34.7476 -13.8931 -8.49895 -2.45139 16.6628 39.6877 -30.2958 41.7258 5.00185 -11.1191 28.601 -4.11588 34.2273 2.31777 13.2147 24.596 25.4991 -0 7.9149 -0 -1.42712 -14.2761 -28.4235 5.76727 3.45144 -0.348332 -22.2093 32.519 -13.2302 -0 7.4572 -0 
1.79323 5.80281 0.929184 -3.55966 4.53741 61.3549 -7.79644 -19.5245 -12.8282 2.31911 2.68603 -7.4229 3.79712 14.0619 -18.8309 0.792047 -19.9235 -18.2946 -11.098 0 -10.5497 -15.2315 -13.591 -13.3892 -2.03192 -3.56453 -24.41 -40.1516 -49.4718 -19.8891 14.8093 0 -0.9294 0.660691 -32.5965 -17.7456 -8.39388 -2.86021 19.4606 36.4849 -32.739 36.2536 5.8901 -14.9205 31.2177 -2.46425 28.3213 1.16962 11.6089 17.4281 26.8078 -0 10.9935 -0 -1.22497 -10.3997 -27.7906 6.42059 4.08917 -0.45977 -22.9536 23.6322 -15.272 -0 6.3932 -0 
2.0166 5.71651 1.03037 -3.63403 3.22496 61.6057 -7.30455 -17.3489 -13.0524 2.51831 1.77384 -7.14154 5.09708 13.375 -19.0301 0.588309 -19.1497 -18.3862 -10.7689 0 -9.6269 -13.8874 -13.4079 -12.7304 -0.765124 -4.56133 -23.9945 -39.4086 -49.7684 -16.9916 13.7881 2.48481e-017 -1.3907 2.46196 -32.9796 -17.2423 -9.15266 -3.17806 19.3645 37.2705 -32.317 35.8319 8.36284 -17.8821 36.0697 -1.6816 20.4792 0.588495 11.4721 14.8864 24.3923 -0 10.3161 -0 0.330028 -6.54394 -24.8558 6.58605 4.14996 -0.478755 -23.0796 17.2409 -20.8215 -0 9.1531 -0 
2.23622 5.63095 1.10749 -5.11727 1.89579 60.8132 -5.07688 -15.8973 -11.9427 3.06709 -1.38635 -6.38458 4.85124 14.6272 -19.5785 1.15323 -19.766 -18.8069 -9.0491 -9.93923e-017 -11.188 -14.8961 -14.1764 -9.11453 -0.426565 -4.12382 -24.1952 -35.785 -48.6025 -12.8091 9.8711 0 -1.5565 4.59143 -33.7004 -18.3853 -9.73426 -3.29483 20.3045 37.2703 -33.5545 31.1711 12.0934 -22.1033 37.6293 -0.841702 12.364 0.180281 5.25993 20.0365 21.4419 -0 11.1021 -0 2.68488 -4.13893 -22.8862 5.99142 4.15798 -0.436048 -21.7084 10.0618 -22.8677 -0 8.6737 -0 
2.4761 5.56907 1.17379 -5.07801 0.715264 58.996 -3.08747 -14.5265 -10.5661 1.53544 -1.84928 -5.95191 6.40182 14.5327 -19.824 2.07343 -19.8933 -18.6765 -5.3593 0 -10.9189 -15.8356 -11.9729 -6.97363 1.56726 -4.99882 -24.8931 -33.7322 -50.4465 -11.2248 8.9324 0 -0.7887 6.73628 -32.4523 -17.5618 -10.7777 -2.61097 18.5164 36.5067 -35.9523 31.0434 13.7738 -23.3894 42.529 0.78438 2.1246 -0.02912 1.62003 33.3537 15.4336 -0 11.2385 -0 3.18467 -0.184119 -21.5819 6.17477 4.46464 -0.482564 -23.1065 5.13921 -23.1468 -0 10.9506 -0 
2.7231 5.55752 1.22651 -6.28945 0.353385 56.6507 -1.37309 -15.0184 -8.86222 1.4569 -1.925 -4.5956 7.06141 14.1404 -20.1248 -0.0316464 -20.0964 -19.2984 -4.9297 -4.96962e-017 -8.7705 -15.113 -12.642 -8.62176 1.11619 -4.48204 -23.9253 -35.2597 -46.0816 -14.3628 6.7503 -6.21202e-018 -0.8446 7.81048 -34.3338 -18.3635 -11.3635 -2.78061 19.7607 35.2814 -37.3783 24.5116 16.1312 -26.2378 46.2456 2.03525 -2.8827 0.10243 -3.27094 46.2331 13.4992 -0 13.4109 -0 3.59937 0.975306 -19.8498 4.32832 5.15598 -0.389677 -21.1062 3.92327 -21.6703 -0 12.4044 -0 
2.99225 5.60195 1.26842 -5.45972 0.495171 54.6732 -1.71866 -14.5237 -8.21567 1.7839 -2.8538 -3.89654 7.7734 16.8646 -19.8142 -1.37168 -20.6788 -18.9296 -5.8069 9.93923e-017 -10.6537 -11.4471 -5.84509 -3.22629 3.74607 -5.51856 -25.239 -40.1571 -50.3188 -17.9467 6.9611 0 0.6647 6.71236 -31.6146 -19.1131 -11.8126 -3.21052 18.2148 36.0482 -37.5969 24.3788 16.3348 -26.2738 46.5921 2.66362 -3.27809 0.152449 -7.18874 52.538 12.0895 -0 14.6052 -0 2.05252 3.20186 -19.3299 3.10888 6.1211 -0.331792 -20.5505 8.41423 -22.6365 -0 13.7151 -0 
3.28797 5.68373 1.29357 -4.52839 1.82672 53.4828 -3.14994 -15.8681 -7.97881 2.99836 -1.15446 -3.64524 6.57867 16.197 -19.0375 -2.10792 -18.9586 -18.4673 -7.6827 0 -8.7254 -8.58425 -3.4287 -3.63602 3.97511 -4.81979 -25.3289 -40.721 -52.6884 -19.6386 9.0256 1.2424e-017 -1.3148 4.21667 -30.2765 -15.4941 -11.5968 -2.89426 16.3098 35.9803 -40.2521 21.7692 13.9009 -26.1211 44.4265 2.59607 -1.6919 0.0767335 -6.1042 56.491 13.2767 -0 17.459 -0 -1.48247 2.95415 -22.9131 1.87166 9.78305 -0.318126 -19.8922 13.9648 -20.4765 -0 12.5099 -0 
3.59983 5.78946 1.31095 -2.98444 1.80591 51.3327 -2.45364 -16.1819 -7.53495 2.92691 1.07907 -2.2401 5.70829 15.06 -18.8369 -1.98532 -18.8388 -18.4488 -9.0359 0 -7.959 -6.41638 0.706405 -3.59827 5.42762 -4.64025 -25.3274 -41.2093 -55.4902 -19.4035 10.8701 0 -4.1463 2.81501 -28.7591 -11.7839 -11.1682 -2.67116 15.1585 34.0258 -43.8872 18.6362 11.5655 -22.2638 42.1403 1.56109 -1.0128 0.0276043 -1.8099 56.6112 12.1679 -0 17.1123 -0 -4.31576 2.25419 -27.0267 0.0421529 13.3412 -0.00976349 -18.9977 24.1349 -20.9014 -0 10.6036 -0 
3.90766 5.87944 1.30546 -2.36685 2.47508 49.1655 -0.707575 -16.8606 -5.72225 1.98834 2.19911 -2.55859 3.74266 13.3934 -18.2193 -0.0250393 -17.3053 -17.8217 -10.2725 4.96962e-017 -4.8984 -4.56433 0.662432 -6.63665 4.02887 -3.19621 -24.9709 -37.1041 -54.1434 -17.1212 10.4927 4.96962e-017 -4.7047 2.30269 -29.3978 -12.1413 -11.8419 -3.87485 16.5799 33.9604 -43.8719 14.8997 8.03838 -19.4578 39.4367 1.07719 -0.532 0.0100004 3.15207 55.4652 13.3096 -0 16.2334 -0 -7.64664 -1.85753 -26.9372 -1.30048 17.3576 0.388073 -12.0555 31.4222 -24.5288 -0 5.0717 -0 
4.19083 5.93671 1.30058 -1.80409 3.06332 48.6348 -0.494148 -17.0499 -6.21307 1.43715 3.12776 -2.65105 3.85906 12.3438 -17.4806 1.06638 -17.1716 -16.9402 -9.3784 0 -4.9075 -5.20256 1.77473 -6.26932 5.76305 -3.449 -24.8324 -38.2827 -50.0365 -17.5268 11.1757 0 -5.2844 1.51666 -26.9851 -12.5126 -12.6294 -3.20938 17.2939 34.2646 -44.2609 13.073 4.21707 -17.2464 36.3721 1.05234 0.6702 -0.0123008 4.86845 51.5701 14.702 -0 17.4138 -0 -9.47055 -6.17759 -26.4711 -0.452974 19.8178 0.153597 -13.314 34.7634 -25.5283 -0 1.6815 -0 
4.45297 5.97399 1.3181 -1.52992 4.34024 48.9407 -2.07428 -17.7739 -7.0089 1.2208 3.00558 -3.21022 4.93426 12.5995 -17.3503 1.15787 -16.5645 -16.651 -9.2329 0 -6.9007 -4.38333 3.58732 -3.96318 6.23441 -3.54276 -25.5309 -37.2543 -50.025 -16.3901 13.436 0 -5.3002 -1.59349 -26.0652 -14.3454 -12.0197 -2.97402 17.1411 30.0712 -43.0711 7.88962 0.12785 -15.0635 33.3658 0.840104 0.8915 -0.0131016 7.02384 45.7045 15.2964 -0 13.3472 -0 -9.9032 -10.7439 -25.7552 1.36542 19.8001 -0.462652 -16.4286 32.7754 -24.2223 -0 4.7085 -0 
